<?xml version="1.0" encoding="iso-8859-1"?>
<svg version="1.1" xmlns="http://www.w3.org/2000/svg" width="1024" height="1024" viewBox="0 0 1024 1024">
<title></title>
<g id="icomoon-ignore">
</g>
<path fill="#aaa6a0" d="M511.407 0.047c-18.355 0-36.697 0.987-54.948 2.954-16.728 1.709-33.25 4.511-49.55 7.911-3.155 0.66-6.311 1.356-9.466 2.085-96.040 21.866-183.736 70.97-252.57 141.424-6.401 6.561-12.667 13.317-18.795 20.264-185.942 213.468-163.627 537.255 49.843 723.197 204.37 178.016 511.999 166.171 702.076-27.031 6.414-6.561 12.678-13.317 18.795-20.264 82.059-93.45 127.281-213.586 127.208-337.951 0-283.097-229.495-512.591-512.593-512.588zM167.649 180.050c2.7-2.802 5.502-5.485 8.253-8.201 3.178-3.127 6.339-6.271 9.585-9.295 2.853-2.665 5.792-5.228 8.714-7.826 3.298-2.922 6.578-5.844 9.961-8.663 2.973-2.512 6.031-4.921 9.073-7.347 3.417-2.734 6.835-5.468 10.354-8.099 3.11-2.341 6.271-4.613 9.449-6.835 3.537-2.529 7.091-5.126 10.696-7.484 3.229-2.187 6.493-4.306 9.773-6.407 3.656-2.341 7.33-4.647 11.038-6.835 3.338-1.993 6.698-3.953 10.081-5.878 3.782-2.153 7.58-4.255 11.397-6.305 3.417-1.822 6.835-3.605 10.252-5.348 3.896-1.965 7.826-3.862 11.772-5.724 3.417-1.623 6.971-3.246 10.491-4.784 4.015-1.709 8.082-3.417 12.148-5.126 3.537-1.452 7.057-2.871 10.628-4.237 4.135-1.572 8.321-3.041 12.507-4.511 3.571-1.247 7.142-2.495 10.764-3.674 4.255-1.367 8.543-2.631 12.849-3.879 3.605-1.042 7.176-2.119 10.799-3.093 1.384-0.359 2.768-0.649 4.152-1.008-50.576 49.108-88.108 110.055-109.199 177.322-40.554-10.696-79.815-25.805-117.076-45.057 0.564-0.598 1.042-1.196 1.538-1.709zM143.079 207.559c41.044 22.238 84.567 39.559 129.668 51.601-22.11 76.88-33.716 156.398-34.497 236.39h-204.865c3.723-105.485 42.297-206.76 109.694-287.99zM143.079 817.712c-67.393-81.233-105.967-182.508-109.694-287.99h204.865c0.782 79.992 12.385 159.51 34.497 236.39-45.099 12.046-88.623 29.365-129.668 51.601zM388.131 974.838c-3.451-0.871-7.022-1.999-10.576-3.041-4.323-1.264-8.663-2.529-12.934-3.913-3.605-1.162-7.159-2.409-10.713-3.656-4.203-1.452-8.406-2.939-12.558-4.528-3.554-1.35-7.057-2.768-10.576-4.203-4.084-1.709-8.167-3.417-12.217-5.126-3.486-1.538-6.954-3.12-10.406-4.75-3.981-1.879-7.945-3.793-11.96-5.775-3.417-1.709-6.835-3.417-10.252-5.28-3.862-2.067-7.689-4.186-11.516-6.373-3.417-1.897-6.664-3.844-9.961-5.826-3.759-2.255-7.45-4.579-11.14-6.954-3.246-2.067-6.493-4.169-9.688-6.322-3.639-2.46-7.245-5.023-10.816-7.586-3.127-2.238-6.254-4.477-9.329-6.835-3.537-2.665-7.005-5.416-10.457-8.184-3.024-2.409-6.031-4.801-8.987-7.279-3.417-2.836-6.715-5.792-10.030-8.731-2.905-2.58-5.826-5.126-8.663-7.757-3.263-3.041-6.424-6.202-9.603-9.329-2.751-2.717-5.553-5.399-8.253-8.184-0.496-0.53-0.974-1.076-1.469-1.589 37.259-19.261 76.519-34.376 117.076-45.074 21.095 67.265 58.625 128.21 109.199 177.322-1.384-0.359-2.785-0.649-4.169-1.025zM494.323 989.703c-73.112-10.389-137.203-86.696-177.527-199.381 58.299-13.054 117.791-20.057 177.527-20.897v220.277zM494.323 735.253c-63.369 0.833-126.471 8.359-188.257 22.451-21.454-74.127-32.772-150.819-33.643-227.983h221.9v205.532zM494.323 495.549h-221.9c0.869-77.164 12.187-153.856 33.643-227.983 61.786 14.090 124.891 21.616 188.257 22.451v205.532zM494.323 255.845c-59.738-0.833-119.229-7.836-177.527-20.897 40.324-112.684 104.415-188.992 177.527-199.381v220.277zM879.74 207.559c67.393 81.233 105.967 182.508 109.694 287.99h-204.865c-0.782-79.992-12.385-159.51-34.497-236.39 45.099-12.048 88.623-29.367 129.668-51.601zM634.551 50.415c3.588 0.888 7.159 2.016 10.713 3.058 4.323 1.264 8.663 2.529 12.934 3.913 3.605 1.162 7.159 2.409 10.713 3.656 4.203 1.452 8.406 2.939 12.558 4.528 3.554 1.35 7.057 2.768 10.576 4.203 4.084 1.709 8.167 3.417 12.217 5.126 3.486 1.538 6.954 3.12 10.406 4.75 3.981 1.879 7.945 3.793 11.96 5.775 3.417 1.709 6.835 3.417 10.252 5.28 3.862 2.067 7.689 4.186 11.516 6.373 3.417 1.897 6.664 3.844 9.961 5.826 3.759 2.255 7.45 4.579 11.14 6.954 3.246 2.067 6.493 4.169 9.688 6.322 3.639 2.46 7.228 5.006 10.799 7.569 3.144 2.238 6.271 4.494 9.363 6.835 3.52 2.648 6.971 5.399 10.44 8.167 3.007 2.392 6.031 4.784 8.987 7.279 3.417 2.836 6.715 5.792 10.030 8.731 2.905 2.58 5.826 5.126 8.663 7.757 3.263 3.041 6.424 6.202 9.603 9.329 2.751 2.717 5.553 5.399 8.253 8.184 0.496 0.53 0.974 1.076 1.469 1.589-37.259 19.261-76.519 34.376-117.076 45.074-21.136-67.273-58.715-128.214-109.336-177.305 1.384 0.359 2.785 0.649 4.169 1.025zM528.496 35.567c73.112 10.389 137.203 86.696 177.527 199.381-58.299 13.054-117.791 20.057-177.527 20.897v-220.277zM528.496 290.017c63.369-0.833 126.471-8.359 188.257-22.451 21.454 74.127 32.772 150.819 33.643 227.983h-221.9v-205.532zM528.496 529.722h221.9c-0.869 77.164-12.187 153.856-33.643 227.983v0c-61.786-14.090-124.888-21.616-188.257-22.451v-205.532zM528.496 989.703v-220.277c59.738 0.833 119.229 7.836 177.527 20.897-40.324 112.684-104.415 188.992-177.527 199.381zM855.17 845.221c-2.7 2.785-5.485 5.468-8.236 8.184-3.178 3.127-6.356 6.288-9.62 9.329-2.836 2.648-5.758 5.126-8.663 7.774-3.315 2.939-6.612 5.878-9.996 8.714-2.99 2.495-6.031 4.904-9.073 7.33-3.417 2.734-6.835 5.468-10.354 8.099-3.11 2.341-6.271 4.613-9.449 6.835-3.537 2.529-7.091 5.126-10.696 7.484-3.229 2.187-6.493 4.306-9.773 6.39-3.656 2.358-7.341 4.637-11.055 6.835-3.417 1.999-6.681 3.947-10.047 5.878-3.782 2.153-7.586 4.255-11.414 6.305-3.417 1.822-6.835 3.605-10.252 5.348-3.896 1.965-7.826 3.862-11.772 5.724-3.417 1.623-6.971 3.246-10.491 4.784-4.015 1.709-8.082 3.417-12.148 5.126-3.537 1.435-7.057 2.871-10.611 4.22-4.169 1.589-8.355 3.076-12.558 4.528-3.554 1.247-7.108 2.495-10.713 3.656-4.272 1.384-8.543 2.648-12.9 3.896-3.571 1.059-7.159 2.119-10.764 3.093-1.384 0.359-2.768 0.649-4.152 1.008 50.576-49.108 88.108-110.055 109.199-177.322 40.554 10.696 79.815 25.805 117.076 45.057-0.564 0.615-1.042 1.213-1.538 1.726zM879.74 817.712c-41.044-22.238-84.567-39.559-129.668-51.601 22.11-76.88 33.716-156.398 34.497-236.39h204.865c-3.721 105.483-42.297 206.76-109.694 287.99z"></path>
</svg>
